<svg xmlns="http://www.w3.org/2000/svg" viewBox="0 0 64 64" role="img" aria-label="Auto mode">
  <defs>
    <clipPath id="clip"><rect width="64" height="64" rx="10"/></clipPath>
  </defs>
  <rect width="64" height="64" rx="10" fill="#3d4654"/>
  <g fill="none" stroke="#e8eef4" stroke-width="1.4" stroke-linecap="round" stroke-linejoin="round" clip-path="url(#clip)">
    <path d="M41.5 19L41.49 19.41L41.46 19.83L41.42 20.24L41.36 20.65L41.27 21.06L41.18 21.46L41.06 21.86L40.93 22.25L40.78 22.64L40.61 23.01L40.43 23.39L40.23 23.75L40.01 24.1L39.78 24.45L39.54 24.78L39.28 25.11L39 25.42L38.72 25.72L38.42 26L38.11 26.28L37.78 26.54L37.45 26.78L37.1 27.01L36.75 27.23L36.39 27.43L36.01 27.61L35.64 27.78L35.25 27.93L34.86 28.06L34.46 28.18L34.06 28.27L33.65 28.36L33.24 28.42L32.83 28.46L32.41 28.49L32 28.5L31.59 28.49L31.17 28.46L30.76 28.42L30.35 28.36L29.94 28.27L29.54 28.18L29.14 28.06L28.75 27.93L28.36 27.78L27.99 27.61L27.61 27.43L27.25 27.23L26.9 27.01L26.55 26.78L26.22 26.54L25.89 26.28L25.58 26L25.28 25.72L25 25.42L24.72 25.11L24.46 24.78L24.22 24.45L23.99 24.1L23.77 23.75L23.57 23.39L23.39 23.01L23.22 22.64L23.07 22.25L22.94 21.86L22.82 21.46L22.73 21.06L22.64 20.65L22.58 20.24L22.54 19.83L22.51 19.41L22.5 19L22.51 18.59L22.54 18.17L22.58 17.76L22.64 17.35L22.73 16.94L22.82 16.54L22.94 16.14L23.07 15.75L23.22 15.36L23.39 14.99L23.57 14.61L23.77 14.25L23.99 13.9L24.22 13.55L24.46 13.22L24.72 12.89L25 12.58L25.28 12.28L25.58 12L25.89 11.72L26.22 11.46L26.55 11.22L26.9 10.99L27.25 10.77L27.61 10.57L27.99 10.39L28.36 10.22L28.75 10.07L29.14 9.94L29.54 9.82L29.94 9.73L30.35 9.64L30.76 9.58L31.17 9.54L31.59 9.51L32 9.5L32.41 9.51L32.83 9.54L33.24 9.58L33.65 9.64L34.06 9.73L34.46 9.82L34.86 9.94L35.25 10.07L35.64 10.22L36.01 10.39L36.39 10.57L36.75 10.77L37.1 10.99L37.45 11.22L37.78 11.46L38.11 11.72L38.42 12L38.72 12.28L39 12.58L39.28 12.89L39.54 13.22L39.78 13.55L40.01 13.9L40.23 14.25L40.43 14.61L40.61 14.99L40.78 15.36L40.93 15.75L41.06 16.14L41.18 16.54L41.27 16.94L41.36 17.35L41.42 17.76L41.46 18.17L41.49 18.59"/>
    <path d="M18.48 28.46L18.08 27.87L17.71 27.25L17.36 26.62L17.05 25.97L16.76 25.31L16.5 24.64L16.26 23.96L16.06 23.27L15.89 22.57L15.75 21.87L15.64 21.15L15.56 20.44L15.52 19.72L15.5 19L15.52 18.28L15.56 17.56L15.64 16.85L15.75 16.13L15.89 15.43L16.06 14.73L16.26 14.04L16.5 13.36L16.76 12.69L17.05 12.03L17.36 11.38L17.71 10.75L18.08 10.13L18.48 9.54L18.91 8.96L19.36 8.39L19.83 7.85L20.33 7.33L20.85 6.83L21.39 6.36L21.96 5.91L22.54 5.48L23.13 5.08L23.75 4.71L24.38 4.36L25.03 4.05L25.69 3.76L26.36 3.5L27.04 3.26L27.73 3.06L28.43 2.89L29.13 2.75L29.85 2.64L30.56 2.56L31.28 2.52L32 2.5L32.72 2.52L33.44 2.56L34.15 2.64L34.87 2.75L35.57 2.89L36.27 3.06L36.96 3.26L37.64 3.5L38.31 3.76L38.97 4.05L39.62 4.36L40.25 4.71L40.87 5.08L41.46 5.48L42.04 5.91L42.61 6.36L43.15 6.83L43.67 7.33L44.17 7.85L44.64 8.39L45.09 8.96L45.52 9.54L45.92 10.13L46.29 10.75L46.64 11.38L46.95 12.03L47.24 12.69L47.5 13.36L47.74 14.04L47.94 14.73L48.11 15.43L48.25 16.13L48.36 16.85L48.44 17.56L48.48 18.28L48.5 19L48.48 19.72L48.44 20.44L48.36 21.15L48.25 21.87L48.11 22.57L47.94 23.27L47.74 23.96L47.5 24.64L47.24 25.31L46.95 25.97L46.64 26.62L46.29 27.25L45.92 27.87L45.52 28.46"/>
    <path d="M27.5 45L27.49 45.41L27.46 45.83L27.42 46.24L27.36 46.65L27.27 47.06L27.18 47.46L27.06 47.86L26.93 48.25L26.78 48.64L26.61 49.01L26.43 49.39L26.23 49.75L26.01 50.1L25.78 50.45L25.54 50.78L25.28 51.11L25 51.42L24.72 51.72L24.42 52L24.11 52.28L23.78 52.54L23.45 52.78L23.1 53.01L22.75 53.23L22.39 53.43L22.01 53.61L21.64 53.78L21.25 53.93L20.86 54.06L20.46 54.18L20.06 54.27L19.65 54.36L19.24 54.42L18.83 54.46L18.41 54.49L18 54.5L17.59 54.49L17.17 54.46L16.76 54.42L16.35 54.36L15.94 54.27L15.54 54.18L15.14 54.06L14.75 53.93L14.36 53.78L13.99 53.61L13.61 53.43L13.25 53.23L12.9 53.01L12.55 52.78L12.22 52.54L11.89 52.28L11.58 52L11.28 51.72L11 51.42L10.72 51.11L10.46 50.78L10.22 50.45L9.99 50.1L9.77 49.75L9.57 49.39L9.39 49.01L9.22 48.64L9.07 48.25L8.94 47.86L8.82 47.46L8.73 47.06L8.64 46.65L8.58 46.24L8.54 45.83L8.51 45.41L8.5 45L8.51 44.59L8.54 44.17L8.58 43.76L8.64 43.35L8.73 42.94L8.82 42.54L8.94 42.14L9.07 41.75L9.22 41.36L9.39 40.99L9.57 40.61L9.77 40.25L9.99 39.9L10.22 39.55L10.46 39.22L10.72 38.89L11 38.58L11.28 38.28L11.58 38L11.89 37.72L12.22 37.46L12.55 37.22L12.9 36.99L13.25 36.77L13.61 36.57L13.99 36.39L14.36 36.22L14.75 36.07L15.14 35.94L15.54 35.82L15.94 35.73L16.35 35.64L16.76 35.58L17.17 35.54L17.59 35.51L18 35.5L18.41 35.51L18.83 35.54L19.24 35.58L19.65 35.64L20.06 35.73L20.46 35.82L20.86 35.94L21.25 36.07L21.64 36.22L22.01 36.39L22.39 36.57L22.75 36.77L23.1 36.99L23.45 37.22L23.78 37.46L24.11 37.72L24.42 38L24.72 38.28L25 38.58L25.28 38.89L25.54 39.22L25.78 39.55L26.01 39.9L26.23 40.25L26.43 40.61L26.61 40.99L26.78 41.36L26.93 41.75L27.06 42.14L27.18 42.54L27.27 42.94L27.36 43.35L27.42 43.76L27.46 44.17L27.49 44.59"/>
    <path d="M31.92 53.87L31.52 54.46L31.09 55.04L30.64 55.61L30.17 56.15L29.67 56.67L29.15 57.17L28.61 57.64L28.04 58.09L27.46 58.52L26.87 58.92L26.25 59.29L25.62 59.64L24.97 59.95L24.31 60.24L23.64 60.5L22.96 60.74L22.27 60.94L21.57 61.11L20.87 61.25L20.15 61.36L19.44 61.44L18.72 61.48L18 61.5L17.28 61.48L16.56 61.44L15.85 61.36L15.13 61.25L14.43 61.11L13.73 60.94L13.04 60.74L12.36 60.5L11.69 60.24L11.03 59.95L10.38 59.64L9.75 59.29L9.13 58.92L8.54 58.52L7.96 58.09L7.39 57.64L6.85 57.17L6.33 56.67L5.83 56.15L5.36 55.61L4.91 55.04L4.48 54.46L4.08 53.87L3.71 53.25L3.36 52.62L3.05 51.97L2.76 51.31L2.5 50.64L2.26 49.96L2.06 49.27L1.89 48.57L1.75 47.87L1.64 47.15L1.56 46.44L1.52 45.72L1.5 45L1.52 44.28L1.56 43.56L1.64 42.85L1.75 42.13L1.89 41.43L2.06 40.73L2.26 40.04L2.5 39.36L2.76 38.69L3.05 38.03L3.36 37.38L3.71 36.75L4.08 36.13L4.48 35.54L4.91 34.96L5.36 34.39L5.83 33.85L6.33 33.33L6.85 32.83L7.39 32.36L7.96 31.91L8.54 31.48L9.13 31.08L9.75 30.71L10.38 30.36L11.03 30.05L11.69 29.76L12.36 29.5L13.04 29.26L13.73 29.06L14.43 28.89L15.13 28.75L15.85 28.64L16.56 28.56L17.28 28.52L18 28.5M31.52 35.54L31.92 36.13"/>
    <path d="M55.5 45L55.49 45.41L55.46 45.83L55.42 46.24L55.36 46.65L55.27 47.06L55.18 47.46L55.06 47.86L54.93 48.25L54.78 48.64L54.61 49.01L54.43 49.39L54.23 49.75L54.01 50.1L53.78 50.45L53.54 50.78L53.28 51.11L53 51.42L52.72 51.72L52.42 52L52.11 52.28L51.78 52.54L51.45 52.78L51.1 53.01L50.75 53.23L50.39 53.43L50.01 53.61L49.64 53.78L49.25 53.93L48.86 54.06L48.46 54.18L48.06 54.27L47.65 54.36L47.24 54.42L46.83 54.46L46.41 54.49L46 54.5L45.59 54.49L45.17 54.46L44.76 54.42L44.35 54.36L43.94 54.27L43.54 54.18L43.14 54.06L42.75 53.93L42.36 53.78L41.99 53.61L41.61 53.43L41.25 53.23L40.9 53.01L40.55 52.78L40.22 52.54L39.89 52.28L39.58 52L39.28 51.72L39 51.42L38.72 51.11L38.46 50.78L38.22 50.45L37.99 50.1L37.77 49.75L37.57 49.39L37.39 49.01L37.22 48.64L37.07 48.25L36.94 47.86L36.82 47.46L36.73 47.06L36.64 46.65L36.58 46.24L36.54 45.83L36.51 45.41L36.5 45L36.51 44.59L36.54 44.17L36.58 43.76L36.64 43.35L36.73 42.94L36.82 42.54L36.94 42.14L37.07 41.75L37.22 41.36L37.39 40.99L37.57 40.61L37.77 40.25L37.99 39.9L38.22 39.55L38.46 39.22L38.72 38.89L39 38.58L39.28 38.28L39.58 38L39.89 37.72L40.22 37.46L40.55 37.22L40.9 36.99L41.25 36.77L41.61 36.57L41.99 36.39L42.36 36.22L42.75 36.07L43.14 35.94L43.54 35.82L43.94 35.73L44.35 35.64L44.76 35.58L45.17 35.54L45.59 35.51L46 35.5L46.41 35.51L46.83 35.54L47.24 35.58L47.65 35.64L48.06 35.73L48.46 35.82L48.86 35.94L49.25 36.07L49.64 36.22L50.01 36.39L50.39 36.57L50.75 36.77L51.1 36.99L51.45 37.22L51.78 37.46L52.11 37.72L52.42 38L52.72 38.28L53 38.58L53.28 38.89L53.54 39.22L53.78 39.55L54.01 39.9L54.23 40.25L54.43 40.61L54.61 40.99L54.78 41.36L54.93 41.75L55.06 42.14L55.18 42.54L55.27 42.94L55.36 43.35L55.42 43.76L55.46 44.17L55.49 44.59"/>
    <path d="M32.08 36.13L32.48 35.54M46 28.5L46.72 28.52L47.44 28.56L48.15 28.64L48.87 28.75L49.57 28.89L50.27 29.06L50.96 29.26L51.64 29.5L52.31 29.76L52.97 30.05L53.62 30.36L54.25 30.71L54.87 31.08L55.46 31.48L56.04 31.91L56.61 32.36L57.15 32.83L57.67 33.33L58.17 33.85L58.64 34.39L59.09 34.96L59.52 35.54L59.92 36.13L60.29 36.75L60.64 37.38L60.95 38.03L61.24 38.69L61.5 39.36L61.74 40.04L61.94 40.73L62.11 41.43L62.25 42.13L62.36 42.85L62.44 43.56L62.48 44.28L62.5 45L62.48 45.72L62.44 46.44L62.36 47.15L62.25 47.87L62.11 48.57L61.94 49.27L61.74 49.96L61.5 50.64L61.24 51.31L60.95 51.97L60.64 52.62L60.29 53.25L59.92 53.87L59.52 54.46L59.09 55.04L58.64 55.61L58.17 56.15L57.67 56.67L57.15 57.17L56.61 57.64L56.04 58.09L55.46 58.52L54.87 58.92L54.25 59.29L53.62 59.64L52.97 59.95L52.31 60.24L51.64 60.5L50.96 60.74L50.27 60.94L49.57 61.11L48.87 61.25L48.15 61.36L47.44 61.44L46.72 61.48L46 61.5L45.28 61.48L44.56 61.44L43.85 61.36L43.13 61.25L42.43 61.11L41.73 60.94L41.04 60.74L40.36 60.5L39.69 60.24L39.03 59.95L38.38 59.64L37.75 59.29L37.13 58.92L36.54 58.52L35.96 58.09L35.39 57.64L34.85 57.17L34.33 56.67L33.83 56.15L33.36 55.61L32.91 55.04L32.48 54.46L32.08 53.87"/>
  </g>
  <circle cx="32" cy="19" r="3.2" fill="#e8eef4"/>
  <circle cx="18" cy="45" r="3.2" fill="#e8eef4"/>
  <circle cx="46" cy="45" r="3.2" fill="#e8eef4"/>
</svg>
